<svg xmlns="http://www.w3.org/2000/svg" viewBox="0 0 128 128">
  <defs/>
  <path fill="#6a4220" d="M6,116 L44,40 L84,40 L122,116 Z"/>
  <path fill="#f08a33" d="M44,40 L84,40 L78,56 C72,62 60,60 56,68 Z"/>
  <path fill="#f5c542" d="M50,40 L78,40 L72,50 C66,54 60,52 56,58 Z"/>
  <path fill="#98a2ad" d="M50.119,40.97 Q48.126,32.998 49.935,25.982 Q50.987,21.901 54.496,15.526 Q57.512,10.046 58.078,7.216 Q58.403,5.591 59.781,4.672 Q61.16,3.753 62.784,4.078 Q64.409,4.403 65.328,5.781 Q66.247,7.16 65.922,8.784 Q65.115,12.823 61.504,19.383 Q58.482,24.874 57.682,27.979 Q56.38,33.028 57.881,39.03 Q58.282,40.637 57.43,42.058 Q56.578,43.479 54.97,43.881 Q53.363,44.282 51.942,43.43 Q50.521,42.578 50.119,40.97 Z"/>
  <path fill="#98a2ad" d="M71.428,38.457 Q73.812,34.482 75.054,27.135 Q76.77,16.988 81.879,11.879 Q82.757,11 84,11 Q85.243,11 86.121,11.879 Q87,12.757 87,14 Q87,15.243 86.121,16.121 Q82.367,19.876 80.97,28.135 Q79.54,36.598 76.572,41.543 Q75.933,42.609 74.728,42.91 Q73.522,43.212 72.457,42.572 Q71.391,41.933 71.09,40.728 Q70.788,39.522 71.428,38.457 Z"/>
  <path fill="#e04b3f" d="M53,22 A5 5 0 1 1 43,22 A5 5 0 1 1 53,22 Z"/>
  <path fill="#e04b3f" d="M92,28 A4 4 0 1 1 84,28 A4 4 0 1 1 92,28 Z"/>
</svg>
