<svg xmlns="http://www.w3.org/2000/svg" viewBox="0 0 128 128">
  <defs/>
  <path fill="#98a2ad" d="M26,98 L102,98 A6 6 0 0 1 108,104 L108,108 A6 6 0 0 1 102,114 L26,114 A6 6 0 0 1 20,108 L20,104 A6 6 0 0 1 26,98 Z"/>
  <path fill="#e3e8ee" d="M34,88 L94,88 A4 4 0 0 1 98,92 L98,96 A4 4 0 0 1 94,100 L34,100 A4 4 0 0 1 30,96 L30,92 A4 4 0 0 1 34,88 Z"/>
  <path fill="#98a2ad" d="M61,60 L67,60 A3 3 0 0 1 70,63 L70,87 A3 3 0 0 1 67,90 L61,90 A3 3 0 0 1 58,87 L58,63 A3 3 0 0 1 61,60 Z"/>
  <path fill="#8fc6f0" d="M64.493,32.959 Q48.683,35.594 41.209,51.29 Q33.961,66.511 36.97,87.576 Q37.146,88.806 36.4,89.8 Q35.654,90.794 34.424,90.97 Q33.194,91.146 32.2,90.4 Q31.206,89.654 31.03,88.424 Q27.765,65.566 35.791,48.71 Q44.61,30.19 63.507,27.041 Q64.733,26.837 65.744,27.559 Q66.755,28.281 66.959,29.507 Q67.163,30.733 66.441,31.744 Q65.719,32.755 64.493,32.959 Z"/>
  <path fill="#8fc6f0" d="M64.493,27.041 Q83.39,30.19 92.209,48.71 Q100.235,65.566 96.97,88.424 Q96.794,89.654 95.8,90.4 Q94.806,91.146 93.576,90.97 Q92.346,90.794 91.6,89.8 Q90.854,88.806 91.03,87.576 Q94.039,66.511 86.791,51.29 Q79.317,35.594 63.507,32.959 Q62.281,32.755 61.559,31.744 Q60.837,30.733 61.041,29.507 Q61.245,28.281 62.256,27.559 Q63.267,26.837 64.493,27.041 Z"/>
  <path fill="#8fc6f0" d="M67,30 L67,60 Q67,61.243 66.121,62.121 Q65.243,63 64,63 Q62.757,63 61.879,62.121 Q61,61.243 61,60 L61,30 Q61,28.757 61.879,27.879 Q62.757,27 64,27 Q65.243,27 66.121,27.879 Q67,28.757 67,30 Z"/>
  <path fill="#8fc6f0" d="M72,26 A8 8 0 1 1 56,26 A8 8 0 1 1 72,26 Z"/>
  <path fill="#8fc6f0" d="M49,92 A5 5 0 1 1 39,92 A5 5 0 1 1 49,92 Z"/>
  <path fill="#8fc6f0" d="M89,92 A5 5 0 1 1 79,92 A5 5 0 1 1 89,92 Z"/>
</svg>
