<svg xmlns="http://www.w3.org/2000/svg" viewBox="0 0 128 128"><path d="M18 122 C18 96 38 86 64 86 C90 86 110 96 110 122 Z" fill="#8a5cd6"/><rect x="54" y="68" width="20" height="24" rx="6" fill="#f3c9a2"/><path d="M54 74 C58 84 70 84 74 74 Z" fill="#000" fill-opacity="0.12"/><circle cx="64" cy="52" r="24" fill="#f3c9a2"/><circle cx="64" cy="30" r="11" fill="#eceef1"/><path d="M40 56 C38 32 90 32 88 56 C82 44 74 40 64 40 C54 40 46 44 40 56 Z" fill="#eceef1"/><circle cx="56" cy="54" r="2.6" fill="#232a36"/><circle cx="72" cy="54" r="2.6" fill="#232a36"/><path d="M58 63 Q64 68 70 63" fill="none" stroke="#232a36" stroke-width="3" stroke-linecap="round" stroke-linejoin="round"/><path d="M49 55 a7 7 0 1 0 14 0 a7 7 0 1 0 -14 0" fill="none" stroke="#232a36" stroke-width="3" stroke-linecap="round" stroke-linejoin="round"/><path d="M65 55 a7 7 0 1 0 14 0 a7 7 0 1 0 -14 0" fill="none" stroke="#232a36" stroke-width="3" stroke-linecap="round" stroke-linejoin="round"/><path d="M63 55 L65 55" fill="none" stroke="#232a36" stroke-width="3" stroke-linecap="round" stroke-linejoin="round"/></svg>
