<svg xmlns="http://www.w3.org/2000/svg" viewBox="0 0 128 128"><path d="M56 118 C60 90 66 62 90 22" fill="none" stroke="#37874f" stroke-width="7" stroke-linecap="round" stroke-linejoin="round"/><path d="M62 100 C40 96 36 80 46 74 Z" fill="#4caf68"/><path d="M67 85 C46 80 42 64 52 59 Z" fill="#4caf68"/><path d="M72 70 C52 64 48 48 58 44 Z" fill="#4caf68"/><path d="M77 55 C58 48 54 32 64 29 Z" fill="#4caf68"/><path d="M66 92 C88 90 94 74 84 68 Z" fill="#4caf68"/><path d="M71 77 C92 74 98 58 88 53 Z" fill="#4caf68"/><path d="M76 62 C96 58 102 42 92 38 Z" fill="#4caf68"/><path d="M81 47 C100 42 106 26 96 23 Z" fill="#4caf68"/></svg>
